<svg width="82px" height="91px" xmlns="http://www.w3.org/2000/svg" viewBox="0 0 82 91"><path fill="#d8262c" fill-rule="evenodd" d="m55.09 22.367c-.086.279-.132.576-.132.883 0 1.657 1.343 3 3 3 1.658 0 3-1.343 3-3 0-1.657-1.342-3-3-3-.307 0-.604.046-.883.132.521.235.883.759.883 1.368 0 .828-.671 1.5-1.5 1.5-.609 0-1.133-.363-1.368-.883m-33 0c-.086.279-.132.576-.132.883 0 1.657 1.343 3 3 3 1.658 0 3-1.343 3-3 0-1.657-1.342-3-3-3-.307 0-.604.046-.883.132.521.235.883.759.883 1.368 0 .828-.671 1.5-1.5 1.5-.609 0-1.133-.363-1.368-.883m51.601 25.826c-.898-1.221-1.921-2.364-3.066-3.422-2.064-1.908-4.526-3.544-7.368-4.883 3.704-3.379 5.847-7.949 5.847-13.707 0-3.988-.85-7.624-2.357-10.833-1.267-2.699-2.997-5.097-5.076-7.147-3.203-3.161-7.233-5.499-11.666-6.854-2.892-.884-5.956-1.348-9.07-1.348-7.894 0-15.445 2.978-20.739 8.202-2.078 2.051-3.809 4.448-5.076 7.147-1.507 3.209-2.357 6.845-2.357 10.833 0 5.757 2.143 10.327 5.826 13.688-2.819 1.359-5.283 2.993-7.347 4.901-1.145 1.058-2.168 2.201-3.066 3.422-4.177-.737-6.876 3.03-7.881 9.07-1.053 6.329.89 10.259 3.133 16.275 2.242 6.02 3.673 6.578 6.207 8.781 5.554 4.827 15.347 7.726 31.3 7.726 7.705 0 13.974-.676 19.02-1.919 5.403-1.331 9.407-3.311 12.279-5.807 2.534-2.203 4.947-3.898 6.996-9.478 2.049-5.58 3.396-9.249 2.344-15.578-1.01-6.04-3.704-9.806-7.881-9.07m-46.733-15.942c0-1.867 2.5-2.5 6-5 3.5-2.5 4.776-6 8-6 4.224 0 6.5 4.5 9.5 6.5 3 2 5.5 2.633 5.5 4.5 0 2.193-6.146 6-15 6-7.854 0-14-3.807-14-6m-2-5c-2.209 0-4-1.791-4-4 0-2.209 1.791-4 4-4 2.209 0 4 1.791 4 4 0 2.209-1.791 4-4 4m33 0c-2.209 0-4-1.791-4-4 0-2.209 1.791-4 4-4 2.209 0 4 1.791 4 4 0 2.209-1.791 4-4 4m-25.1 3.425c-2.063.651-5.545.418-5.545.663 0 .677 3.797.995 6.329.387 2.531-.608 4.387-1.105 7.828-1.105 3.442 0 5.298.497 7.829 1.105 2.531.608 6.328.29 6.328-.387 0-.245-3.481-.012-5.544-.663-2.905-.916-5.243-3.205-8.612-3.205-3.368 0-5.707 2.289-8.612 3.205" transform="translate(.041.75)"/></svg>
